<svg xmlns="http://www.w3.org/2000/svg" xmlns:xlink="http://www.w3.org/1999/xlink" contentStyleType="text/css" data-diagram-type="DESCRIPTION" height="224px" preserveAspectRatio="none" style="width:988px;height:224px;background:#FFFFFF;" version="1.1" viewBox="0 0 988 224" width="988px" zoomAndPan="magnify"><?plantuml 1.2026.6?><defs/><g><!--cluster Base Components--><g class="cluster" data-qualified-name="Base Components" data-source-line="1" id="ent0001"><path d="M8.5,6 L150.8945,6 A3.75,3.75 0 0 1 153.3945,8.5 L160.3945,28.2969 L970.5,28.2969 A2.5,2.5 0 0 1 973,30.7969 L973,207.09 A2.5,2.5 0 0 1 970.5,209.59 L8.5,209.59 A2.5,2.5 0 0 1 6,207.09 L6,8.5 A2.5,2.5 0 0 1 8.5,6" fill="none" style="stroke:#000000;stroke-width:1.5;"/><line style="stroke:#000000;stroke-width:1.5;" x1="6" x2="160.3945" y1="28.2969" y2="28.2969"/><text fill="#000000" font-family="sans-serif" font-size="14" font-weight="700" lengthAdjust="spacing" textLength="141.3945" x="10" y="20.9951">Base Components</text></g><!--entity AltButton--><g class="entity" data-qualified-name="Base Components.AltButton" data-source-line="2" id="ent0002"><rect fill="#F1F1F1" height="46.2969" rx="2.5" ry="2.5" style="stroke:#181818;stroke-width:0.5;" width="105.8506" x="728.07" y="147.29"/><rect fill="#F1F1F1" height="10" style="stroke:#181818;stroke-width:0.5;" width="15" x="813.9206" y="152.29"/><rect fill="#F1F1F1" height="2" style="stroke:#181818;stroke-width:0.5;" width="4" x="811.9206" y="154.29"/><rect fill="#F1F1F1" height="2" style="stroke:#181818;stroke-width:0.5;" width="4" x="811.9206" y="158.29"/><text fill="#000000" font-family="sans-serif" font-size="14" lengthAdjust="spacing" textLength="65.8506" x="743.07" y="180.2851">AltButton</text></g><!--entity AltIcon--><g class="entity" data-qualified-name="Base Components.AltIcon" data-source-line="3" id="ent0003"><rect fill="#F1F1F1" height="46.2969" rx="2.5" ry="2.5" style="stroke:#181818;stroke-width:0.5;" width="88.2207" x="21.89" y="41"/><rect fill="#F1F1F1" height="10" style="stroke:#181818;stroke-width:0.5;" width="15" x="90.1107" y="46"/><rect fill="#F1F1F1" height="2" style="stroke:#181818;stroke-width:0.5;" width="4" x="88.1107" y="48"/><rect fill="#F1F1F1" height="2" style="stroke:#181818;stroke-width:0.5;" width="4" x="88.1107" y="52"/><text fill="#000000" font-family="sans-serif" font-size="14" lengthAdjust="spacing" textLength="48.2207" x="36.89" y="73.9951">AltIcon</text></g><!--entity AltDialog--><g class="entity" data-qualified-name="Base Components.AltDialog" data-source-line="4" id="ent0004"><rect fill="#F1F1F1" height="46.2969" rx="2.5" ry="2.5" style="stroke:#181818;stroke-width:0.5;" width="103.5469" x="594.23" y="41"/><rect fill="#F1F1F1" height="10" style="stroke:#181818;stroke-width:0.5;" width="15" x="677.7769" y="46"/><rect fill="#F1F1F1" height="2" style="stroke:#181818;stroke-width:0.5;" width="4" x="675.7769" y="48"/><rect fill="#F1F1F1" height="2" style="stroke:#181818;stroke-width:0.5;" width="4" x="675.7769" y="52"/><text fill="#000000" font-family="sans-serif" font-size="14" lengthAdjust="spacing" textLength="63.5469" x="609.23" y="73.9951">AltDialog</text></g><!--entity AltTable--><g class="entity" data-qualified-name="Base Components.AltTable" data-source-line="5" id="ent0005"><rect fill="#F1F1F1" height="46.2969" rx="2.5" ry="2.5" style="stroke:#181818;stroke-width:0.5;" width="97.4766" x="461.26" y="41"/><rect fill="#F1F1F1" height="10" style="stroke:#181818;stroke-width:0.5;" width="15" x="538.7366" y="46"/><rect fill="#F1F1F1" height="2" style="stroke:#181818;stroke-width:0.5;" width="4" x="536.7366" y="48"/><rect fill="#F1F1F1" height="2" style="stroke:#181818;stroke-width:0.5;" width="4" x="536.7366" y="52"/><text fill="#000000" font-family="sans-serif" font-size="14" lengthAdjust="spacing" textLength="57.4766" x="476.26" y="73.9951">AltTable</text></g><!--entity AltEditableTable--><g class="entity" data-qualified-name="Base Components.AltEditableTable" data-source-line="6" id="ent0006"><rect fill="#F1F1F1" height="46.2969" rx="2.5" ry="2.5" style="stroke:#181818;stroke-width:0.5;" width="154.5566" x="432.72" y="147.29"/><rect fill="#F1F1F1" height="10" style="stroke:#181818;stroke-width:0.5;" width="15" x="567.2766" y="152.29"/><rect fill="#F1F1F1" height="2" style="stroke:#181818;stroke-width:0.5;" width="4" x="565.2766" y="154.29"/><rect fill="#F1F1F1" height="2" style="stroke:#181818;stroke-width:0.5;" width="4" x="565.2766" y="158.29"/><text fill="#000000" font-family="sans-serif" font-size="14" lengthAdjust="spacing" textLength="114.5566" x="447.72" y="180.2851">AltEditableTable</text></g><!--entity AltToaster--><g class="entity" data-qualified-name="Base Components.AltToaster" data-source-line="7" id="ent0007"><rect fill="#F1F1F1" height="46.2969" rx="2.5" ry="2.5" style="stroke:#181818;stroke-width:0.5;" width="111.8047" x="145.1" y="41"/><rect fill="#F1F1F1" height="10" style="stroke:#181818;stroke-width:0.5;" width="15" x="236.9047" y="46"/><rect fill="#F1F1F1" height="2" style="stroke:#181818;stroke-width:0.5;" width="4" x="234.9047" y="48"/><rect fill="#F1F1F1" height="2" style="stroke:#181818;stroke-width:0.5;" width="4" x="234.9047" y="52"/><text fill="#000000" font-family="sans-serif" font-size="14" lengthAdjust="spacing" textLength="71.8047" x="160.1" y="73.9951">AltToaster</text></g><!--entity AltMenu--><g class="entity" data-qualified-name="Base Components.AltMenu" data-source-line="8" id="ent0008"><rect fill="#F1F1F1" height="46.2969" rx="2.5" ry="2.5" style="stroke:#181818;stroke-width:0.5;" width="97.3945" x="732.3" y="41"/><rect fill="#F1F1F1" height="10" style="stroke:#181818;stroke-width:0.5;" width="15" x="809.6945" y="46"/><rect fill="#F1F1F1" height="2" style="stroke:#181818;stroke-width:0.5;" width="4" x="807.6945" y="48"/><rect fill="#F1F1F1" height="2" style="stroke:#181818;stroke-width:0.5;" width="4" x="807.6945" y="52"/><text fill="#000000" font-family="sans-serif" font-size="14" lengthAdjust="spacing" textLength="57.3945" x="747.3" y="73.9951">AltMenu</text></g><!--entity AltTabs--><g class="entity" data-qualified-name="Base Components.AltTabs" data-source-line="9" id="ent0009"><rect fill="#F1F1F1" height="46.2969" rx="2.5" ry="2.5" style="stroke:#181818;stroke-width:0.5;" width="92.2676" x="864.87" y="41"/><rect fill="#F1F1F1" height="10" style="stroke:#181818;stroke-width:0.5;" width="15" x="937.1376" y="46"/><rect fill="#F1F1F1" height="2" style="stroke:#181818;stroke-width:0.5;" width="4" x="935.1376" y="48"/><rect fill="#F1F1F1" height="2" style="stroke:#181818;stroke-width:0.5;" width="4" x="935.1376" y="52"/><text fill="#000000" font-family="sans-serif" font-size="14" lengthAdjust="spacing" textLength="52.2676" x="879.87" y="73.9951">AltTabs</text></g><!--entity AltHoverCard--><g class="entity" data-qualified-name="Base Components.AltHoverCard" data-source-line="10" id="ent0010"><rect fill="#F1F1F1" height="46.2969" rx="2.5" ry="2.5" style="stroke:#181818;stroke-width:0.5;" width="133.7002" x="292.15" y="41"/><rect fill="#F1F1F1" height="10" style="stroke:#181818;stroke-width:0.5;" width="15" x="405.8502" y="46"/><rect fill="#F1F1F1" height="2" style="stroke:#181818;stroke-width:0.5;" width="4" x="403.8502" y="48"/><rect fill="#F1F1F1" height="2" style="stroke:#181818;stroke-width:0.5;" width="4" x="403.8502" y="52"/><text fill="#000000" font-family="sans-serif" font-size="14" lengthAdjust="spacing" textLength="93.7002" x="307.15" y="73.9951">AltHoverCard</text></g><!--entity AltTooltip--><g class="entity" data-qualified-name="Base Components.AltTooltip" data-source-line="11" id="ent0011"><rect fill="#F1F1F1" height="46.2969" rx="2.5" ry="2.5" style="stroke:#181818;stroke-width:0.5;" width="106.7939" x="21.6" y="147.29"/><rect fill="#F1F1F1" height="10" style="stroke:#181818;stroke-width:0.5;" width="15" x="108.3939" y="152.29"/><rect fill="#F1F1F1" height="2" style="stroke:#181818;stroke-width:0.5;" width="4" x="106.3939" y="154.29"/><rect fill="#F1F1F1" height="2" style="stroke:#181818;stroke-width:0.5;" width="4" x="106.3939" y="158.29"/><text fill="#000000" font-family="sans-serif" font-size="14" lengthAdjust="spacing" textLength="66.7939" x="36.6" y="180.2851">AltTooltip</text></g><!--entity AltSpinner--><g class="entity" data-qualified-name="Base Components.AltSpinner" data-source-line="12" id="ent0012"><rect fill="#F1F1F1" height="46.2969" rx="2.5" ry="2.5" style="stroke:#181818;stroke-width:0.5;" width="112.7344" x="163.63" y="147.29"/><rect fill="#F1F1F1" height="10" style="stroke:#181818;stroke-width:0.5;" width="15" x="256.3644" y="152.29"/><rect fill="#F1F1F1" height="2" style="stroke:#181818;stroke-width:0.5;" width="4" x="254.3644" y="154.29"/><rect fill="#F1F1F1" height="2" style="stroke:#181818;stroke-width:0.5;" width="4" x="254.3644" y="158.29"/><text fill="#000000" font-family="sans-serif" font-size="14" lengthAdjust="spacing" textLength="72.7344" x="178.63" y="180.2851">AltSpinner</text></g><!--reverse link AltTable to AltEditableTable--><g class="link" data-entity-1="ent0005" data-entity-2="ent0006" data-link-type="extension" data-source-line="15" id="lnk13"><path d="M510,105.78 C510,123.27 510,129.37 510,146.85" fill="none" id="AltTable-backto-AltEditableTable" style="stroke:#181818;stroke-width:1;"/><polygon fill="none" points="510,87.78,504,105.78,516,105.78,510,87.78" style="stroke:#181818;stroke-width:1;stroke-linejoin:miter;stroke-miterlimit:10;"/></g><!--link AltDialog to AltButton--><g class="link" data-entity-1="ent0004" data-entity-2="ent0002" data-link-type="dependency" data-source-line="16" id="lnk14"><path d="M675.29,87.78 C697.94,105.27 725.173,126.3135 747.803,143.7935" fill="none" id="AltDialog-to-AltButton" style="stroke:#181818;stroke-width:1;"/><polygon fill="#181818" points="751.76,146.85,747.0826,138.1827,747.803,143.7935,742.1922,144.5139,751.76,146.85" style="stroke:#181818;stroke-width:1;stroke-linejoin:miter;stroke-miterlimit:10;"/></g><!--link AltMenu to AltButton--><g class="link" data-entity-1="ent0008" data-entity-2="ent0002" data-link-type="dependency" data-source-line="17" id="lnk15"><path d="M781,87.78 C781,105.27 781,124.37 781,141.85" fill="none" id="AltMenu-to-AltButton" style="stroke:#181818;stroke-width:1;"/><polygon fill="#181818" points="781,146.85,785,137.85,781,141.85,777,137.85,781,146.85" style="stroke:#181818;stroke-width:1;stroke-linejoin:miter;stroke-miterlimit:10;"/></g><!--link AltTabs to AltButton--><g class="link" data-entity-1="ent0009" data-entity-2="ent0002" data-link-type="dependency" data-source-line="18" id="lnk16"><path d="M882.79,87.78 C860.99,105.27 834.8401,126.2413 813.0501,143.7213" fill="none" id="AltTabs-to-AltButton" style="stroke:#181818;stroke-width:1;"/><polygon fill="#181818" points="809.15,146.85,818.6732,144.3384,813.0501,143.7213,813.6673,138.0982,809.15,146.85" style="stroke:#181818;stroke-width:1;stroke-linejoin:miter;stroke-miterlimit:10;"/></g><?plantuml-src AqXCpavCJrLGSaeiJbLmpiyjoCzBpIifLbAevb9GY7RCAN4gBId9puk5yZoJ4MoNpCIS_7GOBoGnAISLnd5DoIm1yL44G_8JYqjIYs1StzIyKYJDnJ2sHtvPQf5pOb4AGbz-Jabc0OmRN92PbmSoffQB2s6nWasDhYuskv5Sgg2hQuVY9xWpiCg07OKk0m00?></g></svg>