<svg xmlns="http://www.w3.org/2000/svg" xmlns:xlink="http://www.w3.org/1999/xlink" contentStyleType="text/css" data-diagram-type="DESCRIPTION" height="224px" preserveAspectRatio="none" style="width:819px;height:224px;background:#FFFFFF;" version="1.1" viewBox="0 0 819 224" width="819px" zoomAndPan="magnify"><?plantuml 1.2026.6?><defs/><g><!--cluster Base Components--><g class="cluster" data-qualified-name="Base Components" data-source-line="1" id="ent0001"><path d="M8.5,6 L150.8945,6 A3.75,3.75 0 0 1 153.3945,8.5 L160.3945,28.2969 L801.5,28.2969 A2.5,2.5 0 0 1 804,30.7969 L804,207.09 A2.5,2.5 0 0 1 801.5,209.59 L8.5,209.59 A2.5,2.5 0 0 1 6,207.09 L6,8.5 A2.5,2.5 0 0 1 8.5,6" fill="none" style="stroke:#000000;stroke-width:1.5;"/><line style="stroke:#000000;stroke-width:1.5;" x1="6" x2="160.3945" y1="28.2969" y2="28.2969"/><text fill="#000000" font-family="sans-serif" font-size="14" font-weight="700" lengthAdjust="spacing" textLength="141.3945" x="10" y="20.9951">Base Components</text></g><!--entity AltButton--><g class="entity" data-qualified-name="Base Components.AltButton" data-source-line="2" id="ent0002"><rect fill="#F1F1F1" height="46.2969" rx="2.5" ry="2.5" style="stroke:#181818;stroke-width:0.5;" width="105.8506" x="559.07" y="147.29"/><rect fill="#F1F1F1" height="10" style="stroke:#181818;stroke-width:0.5;" width="15" x="644.9206" y="152.29"/><rect fill="#F1F1F1" height="2" style="stroke:#181818;stroke-width:0.5;" width="4" x="642.9206" y="154.29"/><rect fill="#F1F1F1" height="2" style="stroke:#181818;stroke-width:0.5;" width="4" x="642.9206" y="158.29"/><text fill="#000000" font-family="sans-serif" font-size="14" lengthAdjust="spacing" textLength="65.8506" x="574.07" y="180.2851">AltButton</text></g><!--entity AltIcon--><g class="entity" data-qualified-name="Base Components.AltIcon" data-source-line="3" id="ent0003"><rect fill="#F1F1F1" height="46.2969" rx="2.5" ry="2.5" style="stroke:#181818;stroke-width:0.5;" width="88.2207" x="21.89" y="41"/><rect fill="#F1F1F1" height="10" style="stroke:#181818;stroke-width:0.5;" width="15" x="90.1107" y="46"/><rect fill="#F1F1F1" height="2" style="stroke:#181818;stroke-width:0.5;" width="4" x="88.1107" y="48"/><rect fill="#F1F1F1" height="2" style="stroke:#181818;stroke-width:0.5;" width="4" x="88.1107" y="52"/><text fill="#000000" font-family="sans-serif" font-size="14" lengthAdjust="spacing" textLength="48.2207" x="36.89" y="73.9951">AltIcon</text></g><!--entity AltDialog--><g class="entity" data-qualified-name="Base Components.AltDialog" data-source-line="4" id="ent0004"><rect fill="#F1F1F1" height="46.2969" rx="2.5" ry="2.5" style="stroke:#181818;stroke-width:0.5;" width="103.5469" x="425.23" y="41"/><rect fill="#F1F1F1" height="10" style="stroke:#181818;stroke-width:0.5;" width="15" x="508.7769" y="46"/><rect fill="#F1F1F1" height="2" style="stroke:#181818;stroke-width:0.5;" width="4" x="506.7769" y="48"/><rect fill="#F1F1F1" height="2" style="stroke:#181818;stroke-width:0.5;" width="4" x="506.7769" y="52"/><text fill="#000000" font-family="sans-serif" font-size="14" lengthAdjust="spacing" textLength="63.5469" x="440.23" y="73.9951">AltDialog</text></g><!--entity AltTable--><g class="entity" data-qualified-name="Base Components.AltTable" data-source-line="5" id="ent0005"><rect fill="#F1F1F1" height="46.2969" rx="2.5" ry="2.5" style="stroke:#181818;stroke-width:0.5;" width="97.4766" x="292.26" y="41"/><rect fill="#F1F1F1" height="10" style="stroke:#181818;stroke-width:0.5;" width="15" x="369.7366" y="46"/><rect fill="#F1F1F1" height="2" style="stroke:#181818;stroke-width:0.5;" width="4" x="367.7366" y="48"/><rect fill="#F1F1F1" height="2" style="stroke:#181818;stroke-width:0.5;" width="4" x="367.7366" y="52"/><text fill="#000000" font-family="sans-serif" font-size="14" lengthAdjust="spacing" textLength="57.4766" x="307.26" y="73.9951">AltTable</text></g><!--entity AltEditableTable--><g class="entity" data-qualified-name="Base Components.AltEditableTable" data-source-line="6" id="ent0006"><rect fill="#F1F1F1" height="46.2969" rx="2.5" ry="2.5" style="stroke:#181818;stroke-width:0.5;" width="154.5566" x="311.72" y="147.29"/><rect fill="#F1F1F1" height="10" style="stroke:#181818;stroke-width:0.5;" width="15" x="446.2766" y="152.29"/><rect fill="#F1F1F1" height="2" style="stroke:#181818;stroke-width:0.5;" width="4" x="444.2766" y="154.29"/><rect fill="#F1F1F1" height="2" style="stroke:#181818;stroke-width:0.5;" width="4" x="444.2766" y="158.29"/><text fill="#000000" font-family="sans-serif" font-size="14" lengthAdjust="spacing" textLength="114.5566" x="326.72" y="180.2851">AltEditableTable</text></g><!--entity AltToaster--><g class="entity" data-qualified-name="Base Components.AltToaster" data-source-line="7" id="ent0007"><rect fill="#F1F1F1" height="46.2969" rx="2.5" ry="2.5" style="stroke:#181818;stroke-width:0.5;" width="111.8047" x="145.1" y="41"/><rect fill="#F1F1F1" height="10" style="stroke:#181818;stroke-width:0.5;" width="15" x="236.9047" y="46"/><rect fill="#F1F1F1" height="2" style="stroke:#181818;stroke-width:0.5;" width="4" x="234.9047" y="48"/><rect fill="#F1F1F1" height="2" style="stroke:#181818;stroke-width:0.5;" width="4" x="234.9047" y="52"/><text fill="#000000" font-family="sans-serif" font-size="14" lengthAdjust="spacing" textLength="71.8047" x="160.1" y="73.9951">AltToaster</text></g><!--entity AltMenu--><g class="entity" data-qualified-name="Base Components.AltMenu" data-source-line="8" id="ent0008"><rect fill="#F1F1F1" height="46.2969" rx="2.5" ry="2.5" style="stroke:#181818;stroke-width:0.5;" width="97.3945" x="563.3" y="41"/><rect fill="#F1F1F1" height="10" style="stroke:#181818;stroke-width:0.5;" width="15" x="640.6945" y="46"/><rect fill="#F1F1F1" height="2" style="stroke:#181818;stroke-width:0.5;" width="4" x="638.6945" y="48"/><rect fill="#F1F1F1" height="2" style="stroke:#181818;stroke-width:0.5;" width="4" x="638.6945" y="52"/><text fill="#000000" font-family="sans-serif" font-size="14" lengthAdjust="spacing" textLength="57.3945" x="578.3" y="73.9951">AltMenu</text></g><!--entity AltTabs--><g class="entity" data-qualified-name="Base Components.AltTabs" data-source-line="9" id="ent0009"><rect fill="#F1F1F1" height="46.2969" rx="2.5" ry="2.5" style="stroke:#181818;stroke-width:0.5;" width="92.2676" x="695.87" y="41"/><rect fill="#F1F1F1" height="10" style="stroke:#181818;stroke-width:0.5;" width="15" x="768.1376" y="46"/><rect fill="#F1F1F1" height="2" style="stroke:#181818;stroke-width:0.5;" width="4" x="766.1376" y="48"/><rect fill="#F1F1F1" height="2" style="stroke:#181818;stroke-width:0.5;" width="4" x="766.1376" y="52"/><text fill="#000000" font-family="sans-serif" font-size="14" lengthAdjust="spacing" textLength="52.2676" x="710.87" y="73.9951">AltTabs</text></g><!--entity AltTooltip--><g class="entity" data-qualified-name="Base Components.AltTooltip" data-source-line="10" id="ent0010"><rect fill="#F1F1F1" height="46.2969" rx="2.5" ry="2.5" style="stroke:#181818;stroke-width:0.5;" width="106.7939" x="21.6" y="147.29"/><rect fill="#F1F1F1" height="10" style="stroke:#181818;stroke-width:0.5;" width="15" x="108.3939" y="152.29"/><rect fill="#F1F1F1" height="2" style="stroke:#181818;stroke-width:0.5;" width="4" x="106.3939" y="154.29"/><rect fill="#F1F1F1" height="2" style="stroke:#181818;stroke-width:0.5;" width="4" x="106.3939" y="158.29"/><text fill="#000000" font-family="sans-serif" font-size="14" lengthAdjust="spacing" textLength="66.7939" x="36.6" y="180.2851">AltTooltip</text></g><!--entity AltSpinner--><g class="entity" data-qualified-name="Base Components.AltSpinner" data-source-line="11" id="ent0011"><rect fill="#F1F1F1" height="46.2969" rx="2.5" ry="2.5" style="stroke:#181818;stroke-width:0.5;" width="112.7344" x="163.63" y="147.29"/><rect fill="#F1F1F1" height="10" style="stroke:#181818;stroke-width:0.5;" width="15" x="256.3644" y="152.29"/><rect fill="#F1F1F1" height="2" style="stroke:#181818;stroke-width:0.5;" width="4" x="254.3644" y="154.29"/><rect fill="#F1F1F1" height="2" style="stroke:#181818;stroke-width:0.5;" width="4" x="254.3644" y="158.29"/><text fill="#000000" font-family="sans-serif" font-size="14" lengthAdjust="spacing" textLength="72.7344" x="178.63" y="180.2851">AltSpinner</text></g><!--reverse link AltTable to AltEditableTable--><g class="link" data-entity-1="ent0005" data-entity-2="ent0006" data-link-type="extension" data-source-line="14" id="lnk12"><path d="M358.9459,104.1312 C366.9959,121.6212 370.56,129.37 378.61,146.85" fill="none" id="AltTable-backto-AltEditableTable" style="stroke:#181818;stroke-width:1;"/><polygon fill="none" points="351.42,87.78,353.4955,106.6398,364.3962,101.6226,351.42,87.78" style="stroke:#181818;stroke-width:1;stroke-linejoin:miter;stroke-miterlimit:10;"/></g><!--link AltDialog to AltButton--><g class="link" data-entity-1="ent0004" data-entity-2="ent0002" data-link-type="dependency" data-source-line="15" id="lnk13"><path d="M506.29,87.78 C528.94,105.27 556.173,126.3135 578.803,143.7935" fill="none" id="AltDialog-to-AltButton" style="stroke:#181818;stroke-width:1;"/><polygon fill="#181818" points="582.76,146.85,578.0826,138.1827,578.803,143.7935,573.1922,144.5139,582.76,146.85" style="stroke:#181818;stroke-width:1;stroke-linejoin:miter;stroke-miterlimit:10;"/></g><!--link AltMenu to AltButton--><g class="link" data-entity-1="ent0008" data-entity-2="ent0002" data-link-type="dependency" data-source-line="16" id="lnk14"><path d="M612,87.78 C612,105.27 612,124.37 612,141.85" fill="none" id="AltMenu-to-AltButton" style="stroke:#181818;stroke-width:1;"/><polygon fill="#181818" points="612,146.85,616,137.85,612,141.85,608,137.85,612,146.85" style="stroke:#181818;stroke-width:1;stroke-linejoin:miter;stroke-miterlimit:10;"/></g><!--link AltTabs to AltButton--><g class="link" data-entity-1="ent0009" data-entity-2="ent0002" data-link-type="dependency" data-source-line="17" id="lnk15"><path d="M713.79,87.78 C691.99,105.27 665.8401,126.2413 644.0501,143.7213" fill="none" id="AltTabs-to-AltButton" style="stroke:#181818;stroke-width:1;"/><polygon fill="#181818" points="640.15,146.85,649.6732,144.3384,644.0501,143.7213,644.6673,138.0982,640.15,146.85" style="stroke:#181818;stroke-width:1;stroke-linejoin:miter;stroke-miterlimit:10;"/></g><?plantuml-src AqXCpavCJrLGSaeiJbLmpiyjoCzBpIifLbAevb9GY7RCAN4gBId9puk5yZoJ4MoNpCIS_7GOBoGnAISLnd5DoIm1yL44G_8JYqjIYs1StzIyKYJDnGXb-JabcGKmRd11PbuUI5Sj5nV27WMR6brTR5OXEKn1LzSEnGjmMx7AWDs0BWC0?></g></svg>