<?xml version="1.0" encoding="us-ascii" standalone="no"?><svg xmlns="http://www.w3.org/2000/svg" xmlns:xlink="http://www.w3.org/1999/xlink" contentStyleType="text/css" height="216px" preserveAspectRatio="none" style="width:905px;height:216px;background:#FFFFFF;" version="1.1" viewBox="0 0 905 216" width="905px" zoomAndPan="magnify"><defs/><g><!--cluster Base Components--><g id="cluster_Base Components"><path d="M8.5,6 L152.5,6 A3.75,3.75 0 0 1 155,8.5 L162,28.2969 L895.5,28.2969 A2.5,2.5 0 0 1 898,30.7969 L898,207.09 A2.5,2.5 0 0 1 895.5,209.59 L8.5,209.59 A2.5,2.5 0 0 1 6,207.09 L6,8.5 A2.5,2.5 0 0 1 8.5,6 " fill="none" style="stroke:#000000;stroke-width:1.5;"/><line style="stroke:#000000;stroke-width:1.5;" x1="6" x2="162" y1="28.2969" y2="28.2969"/><text fill="#000000" font-family="sans-serif" font-size="14" font-weight="bold" lengthAdjust="spacing" textLength="143" x="10" y="20.9951">Base Components</text></g><!--entity BaseButton--><g id="elem_BaseButton"><rect fill="#F1F1F1" height="46.2969" rx="2.5" ry="2.5" style="stroke:#181818;stroke-width:0.5;" width="122" x="162" y="147.29"/><rect fill="#F1F1F1" height="10" style="stroke:#181818;stroke-width:0.5;" width="15" x="264" y="152.29"/><rect fill="#F1F1F1" height="2" style="stroke:#181818;stroke-width:0.5;" width="4" x="262" y="154.29"/><rect fill="#F1F1F1" height="2" style="stroke:#181818;stroke-width:0.5;" width="4" x="262" y="158.29"/><text fill="#000000" font-family="sans-serif" font-size="14" lengthAdjust="spacing" textLength="82" x="177" y="180.2851">BaseButton</text></g><!--entity BaseIcon--><g id="elem_BaseIcon"><rect fill="#F1F1F1" height="46.2969" rx="2.5" ry="2.5" style="stroke:#181818;stroke-width:0.5;" width="104" x="615" y="41"/><rect fill="#F1F1F1" height="10" style="stroke:#181818;stroke-width:0.5;" width="15" x="699" y="46"/><rect fill="#F1F1F1" height="2" style="stroke:#181818;stroke-width:0.5;" width="4" x="697" y="48"/><rect fill="#F1F1F1" height="2" style="stroke:#181818;stroke-width:0.5;" width="4" x="697" y="52"/><text fill="#000000" font-family="sans-serif" font-size="14" lengthAdjust="spacing" textLength="64" x="630" y="73.9951">BaseIcon</text></g><!--entity BaseDialog--><g id="elem_BaseDialog"><rect fill="#F1F1F1" height="46.2969" rx="2.5" ry="2.5" style="stroke:#181818;stroke-width:0.5;" width="118" x="315" y="41"/><rect fill="#F1F1F1" height="10" style="stroke:#181818;stroke-width:0.5;" width="15" x="413" y="46"/><rect fill="#F1F1F1" height="2" style="stroke:#181818;stroke-width:0.5;" width="4" x="411" y="48"/><rect fill="#F1F1F1" height="2" style="stroke:#181818;stroke-width:0.5;" width="4" x="411" y="52"/><text fill="#000000" font-family="sans-serif" font-size="14" lengthAdjust="spacing" textLength="78" x="330" y="73.9951">BaseDialog</text></g><!--entity BaseTable--><g id="elem_BaseTable"><rect fill="#F1F1F1" height="46.2969" rx="2.5" ry="2.5" style="stroke:#181818;stroke-width:0.5;" width="113" x="467.5" y="41"/><rect fill="#F1F1F1" height="10" style="stroke:#181818;stroke-width:0.5;" width="15" x="560.5" y="46"/><rect fill="#F1F1F1" height="2" style="stroke:#181818;stroke-width:0.5;" width="4" x="558.5" y="48"/><rect fill="#F1F1F1" height="2" style="stroke:#181818;stroke-width:0.5;" width="4" x="558.5" y="52"/><text fill="#000000" font-family="sans-serif" font-size="14" lengthAdjust="spacing" textLength="73" x="482.5" y="73.9951">BaseTable</text></g><!--entity BaseEditableTable--><g id="elem_BaseEditableTable"><rect fill="#F1F1F1" height="46.2969" rx="2.5" ry="2.5" style="stroke:#181818;stroke-width:0.5;" width="168" x="368" y="147.29"/><rect fill="#F1F1F1" height="10" style="stroke:#181818;stroke-width:0.5;" width="15" x="516" y="152.29"/><rect fill="#F1F1F1" height="2" style="stroke:#181818;stroke-width:0.5;" width="4" x="514" y="154.29"/><rect fill="#F1F1F1" height="2" style="stroke:#181818;stroke-width:0.5;" width="4" x="514" y="158.29"/><text fill="#000000" font-family="sans-serif" font-size="14" lengthAdjust="spacing" textLength="128" x="383" y="180.2851">BaseEditableTable</text></g><!--entity BaseToaster--><g id="elem_BaseToaster"><rect fill="#F1F1F1" height="46.2969" rx="2.5" ry="2.5" style="stroke:#181818;stroke-width:0.5;" width="128" x="754" y="41"/><rect fill="#F1F1F1" height="10" style="stroke:#181818;stroke-width:0.5;" width="15" x="862" y="46"/><rect fill="#F1F1F1" height="2" style="stroke:#181818;stroke-width:0.5;" width="4" x="860" y="48"/><rect fill="#F1F1F1" height="2" style="stroke:#181818;stroke-width:0.5;" width="4" x="860" y="52"/><text fill="#000000" font-family="sans-serif" font-size="14" lengthAdjust="spacing" textLength="88" x="769" y="73.9951">BaseToaster</text></g><!--entity BaseMenu--><g id="elem_BaseMenu"><rect fill="#F1F1F1" height="46.2969" rx="2.5" ry="2.5" style="stroke:#181818;stroke-width:0.5;" width="114" x="166" y="41"/><rect fill="#F1F1F1" height="10" style="stroke:#181818;stroke-width:0.5;" width="15" x="260" y="46"/><rect fill="#F1F1F1" height="2" style="stroke:#181818;stroke-width:0.5;" width="4" x="258" y="48"/><rect fill="#F1F1F1" height="2" style="stroke:#181818;stroke-width:0.5;" width="4" x="258" y="52"/><text fill="#000000" font-family="sans-serif" font-size="14" lengthAdjust="spacing" textLength="74" x="181" y="73.9951">BaseMenu</text></g><!--entity BaseTabs--><g id="elem_BaseTabs"><rect fill="#F1F1F1" height="46.2969" rx="2.5" ry="2.5" style="stroke:#181818;stroke-width:0.5;" width="109" x="22.5" y="41"/><rect fill="#F1F1F1" height="10" style="stroke:#181818;stroke-width:0.5;" width="15" x="111.5" y="46"/><rect fill="#F1F1F1" height="2" style="stroke:#181818;stroke-width:0.5;" width="4" x="109.5" y="48"/><rect fill="#F1F1F1" height="2" style="stroke:#181818;stroke-width:0.5;" width="4" x="109.5" y="52"/><text fill="#000000" font-family="sans-serif" font-size="14" lengthAdjust="spacing" textLength="69" x="37.5" y="73.9951">BaseTabs</text></g><!--entity BaseHoverCard--><g id="elem_BaseHoverCard"><rect fill="#F1F1F1" height="46.2969" rx="2.5" ry="2.5" style="stroke:#181818;stroke-width:0.5;" width="147" x="571.5" y="147.29"/><rect fill="#F1F1F1" height="10" style="stroke:#181818;stroke-width:0.5;" width="15" x="698.5" y="152.29"/><rect fill="#F1F1F1" height="2" style="stroke:#181818;stroke-width:0.5;" width="4" x="696.5" y="154.29"/><rect fill="#F1F1F1" height="2" style="stroke:#181818;stroke-width:0.5;" width="4" x="696.5" y="158.29"/><text fill="#000000" font-family="sans-serif" font-size="14" lengthAdjust="spacing" textLength="107" x="586.5" y="180.2851">BaseHoverCard</text></g><!--entity BaseSpinner--><g id="elem_BaseSpinner"><rect fill="#F1F1F1" height="46.2969" rx="2.5" ry="2.5" style="stroke:#181818;stroke-width:0.5;" width="128" x="754" y="147.29"/><rect fill="#F1F1F1" height="10" style="stroke:#181818;stroke-width:0.5;" width="15" x="862" y="152.29"/><rect fill="#F1F1F1" height="2" style="stroke:#181818;stroke-width:0.5;" width="4" x="860" y="154.29"/><rect fill="#F1F1F1" height="2" style="stroke:#181818;stroke-width:0.5;" width="4" x="860" y="158.29"/><text fill="#000000" font-family="sans-serif" font-size="14" lengthAdjust="spacing" textLength="88" x="769" y="180.2851">BaseSpinner</text></g><!--reverse link BaseTable to BaseEditableTable--><g id="link_BaseTable_BaseEditableTable"><path d="M498.1505,102.5907 C486.0705,120.0807 479.66,129.37 467.59,146.85 " fill="none" id="BaseTable-backto-BaseEditableTable" style="stroke:#181818;stroke-width:1.0;"/><polygon fill="none" points="508.38,87.78,493.2136,99.1809,503.0874,106.0006,508.38,87.78" style="stroke:#181818;stroke-width:1.0;"/></g><!--link BaseDialog to BaseButton--><g id="link_BaseDialog_BaseButton"><path d="M341.24,87.78 C315.91,105.27 285.947,125.9603 260.637,143.4403 " fill="none" id="BaseDialog-to-BaseButton" style="stroke:#181818;stroke-width:1.0;"/><polygon fill="#181818" points="255.7,146.85,265.3786,145.0268,259.8142,144.0086,260.8324,138.4441,255.7,146.85" style="stroke:#181818;stroke-width:1.0;"/></g><!--link BaseMenu to BaseButton--><g id="link_BaseMenu_BaseButton"><path d="M223,87.78 C223,105.27 223,123.37 223,140.85 " fill="none" id="BaseMenu-to-BaseButton" style="stroke:#181818;stroke-width:1.0;"/><polygon fill="#181818" points="223,146.85,227,137.85,223,141.85,219,137.85,223,146.85" style="stroke:#181818;stroke-width:1.0;"/></g><!--link BaseTabs to BaseButton--><g id="link_BaseTabs_BaseButton"><path d="M108.68,87.78 C133.17,105.27 162.0277,125.8824 186.4977,143.3624 " fill="none" id="BaseTabs-to-BaseButton" style="stroke:#181818;stroke-width:1.0;"/><polygon fill="#181818" points="191.38,146.85,186.3817,138.3637,187.3114,143.9437,181.7315,144.8734,191.38,146.85" style="stroke:#181818;stroke-width:1.0;"/></g><!--SRC=[AqXCpavCJrLGSaeiJbLmpiyjoCzBpIifLbAevb9GY0Q9EfMMbEJdnSAudib879VCn9pyT3Wt934f9nNESqt9B049e8g6v2SMbwGMmVc-gNcbo0OKmpaU-MMfHSw9HIbmaU22pBmyaDvQBYua2nLiQdHriTg9x4W5NLqxL1yXxCSX1tOEXXm0]--></g></svg>